<svg xmlns="http://www.w3.org/2000/svg" viewBox="0 0 256 256" aria-hidden="true">
  <rect width="256" height="256" fill="#ffffff"/>
  <path
    d="M58 118c-22-6-38-26-38-50 0-29 23-52 52-52 16 0 30 7 40 18 8-22 29-38 54-38 32 0 58 26 58 58 0 23-14 43-34 52v60c0 22-18 40-40 40H98c-22 0-40-18-40-40z"
    fill="#0f766e"
  />
  <rect x="84" y="130" width="88" height="64" rx="10" fill="#f8fafc"/>
  <rect x="92" y="142" width="72" height="10" rx="5" fill="#cbd5f5"/>
  <rect x="92" y="160" width="72" height="10" rx="5" fill="#cbd5f5"/>
  <rect x="92" y="178" width="72" height="10" rx="5" fill="#cbd5f5"/>
</svg>
